PathFileType	4	(X/Y/Z)	/Users/niels/Desktop/University/Third Semester/Perception and Action/Exam/Gymnastics Motion Tracking/Code for Gym Tracking/Analyzed Data/Webcam_Backflip/id9_1_baseline_Sports2D/id9_1_baseline_Sports2D_px_person00.trc
DataRate	CameraRate	NumFrames	NumMarkers	Units	OrigDataRate	OrigDataStartFrame	OrigNumFrames
29.702970297029704	29.702970297029704	12	22	m	29.702970297029704	63	101
Frame#	Time	Hip			RHip			RKnee			RAnkle			RBigToe			RSmallToe			RHeel			LHip			LKnee			LAnkle			LBigToe			LSmallToe			LHeel			Neck			Head			Nose			RShoulder			RElbow			RWrist			LShoulder			LElbow			LWrist		
		X1	Y1	Z1	X2	Y2	Z2	X3	Y3	Z3	X4	Y4	Z4	X5	Y5	Z5	X6	Y6	Z6	X7	Y7	Z7	X8	Y8	Z8	X9	Y9	Z9	X10	Y10	Z10	X11	Y11	Z11	X12	Y12	Z12	X13	Y13	Z13	X14	Y14	Z14	X15	Y15	Z15	X16	Y16	Z16	X17	Y17	Z17	X18	Y18	Z18	X19	Y19	Z19	X20	Y20	Z20	X21	Y21	Z21	X22	Y22	Z22
63	2.121	1.0063098892612514	-0.5864533777314961	0.0	1.0048927484420866	-0.5894598138639893	0.0	1.0073109217993175	-0.827810589818084	0.0	0.9912369601341428	-1.0414165215192297	0.0	1.096504368890758	-1.0637258630582886	0.0	1.0790278866611245	-1.0775180087517913	0.0	0.974445247969766	-1.074530769255713	0.0	1.0152611523390107	-0.5906595369522768	0.0	1.0122548412484265	-0.8168162978454535	0.0	1.0027193331891053	-1.0207818245134148	0.0	1.0988096705262118	-1.0416139567444176	0.0	1.084963546054447	-1.0369958826880301	0.0	0.9779015466977704	-1.0506773735797632	0.0	1.0339949346582507	-0.2726749006608281	0.0	1.0680252931164342	-0.13375171814218179	0.0	1.0854269243128056	-0.2160432834809417	0.0	1.0068569782410892	-0.3146252935993474	0.0	1.1174288024688446	-0.4146052059339232	0.0	1.2931187052330566	-0.42373936409738217	0.0	1.0316104613209789	-0.3144218326180244	0.0	1.0786069252875043	-0.43468601048114325	0.0	1.0974609645845752	-0.5003702688827771	0.0
64	2.1546666666666665	1.0062406382983644	-0.5854675473138605	0.0	1.0049672110293317	-0.5884098329317313	0.0	1.0090628482685964	-0.8264290661911715	0.0	0.9908603425779755	-1.040565161270223	0.0	1.0964141148896804	-1.0638292805526564	0.0	1.0784826369730667	-1.077229373047205	0.0	0.973726348215081	-1.0728723489694967	0.0	1.013661766711731	-0.5893550534816417	0.0	1.0131807816975569	-0.8156040612419232	0.0	1.00253611884001	-1.0188296767659775	0.0	1.099127356423502	-1.0412678403050477	0.0	1.0854811742980182	-1.035949501007517	0.0	0.9783307821746088	-1.0486061500266515	0.0	1.0339200767164702	-0.272117176166897	0.0	1.0675377273408455	-0.13330629449677386	0.0	1.0854065972068683	-0.21584162066326845	0.0	1.0090037611313671	-0.3138562343832796	0.0	1.12916647411903	-0.39981175452723333	0.0	1.3038612052835703	-0.3964684380618528	0.0	1.0296222871943774	-0.31248136825057454	0.0	1.0681060941039366	-0.43482094926774967	0.0	1.094797258851513	-0.5244774101448396	0.0
65	2.188333333333333	1.0066643026371251	-0.5837993489736895	0.0	1.0051161755587792	-0.5868617421972019	0.0	1.0112799647252262	-0.8247103967901932	0.0	0.9906357480079043	-1.0393222021202517	0.0	1.0961424966598585	-1.0634603595521268	0.0	1.0777218440244005	-1.07634406958811	0.0	0.9730629895349755	-1.0706758246337609	0.0	1.0121696631480124	-0.5872477719055614	0.0	1.0142014979396752	-0.8139220867064906	0.0	1.002118261587908	-1.0161509245007607	0.0	1.099315466413157	-1.039750931689594	0.0	1.0860267452434724	-1.033798823395654	0.0	0.9782578647200667	-1.0458609677732411	0.0	1.0343538631173186	-0.2716552925860882	0.0	1.0672747319921465	-0.1330097169058672	0.0	1.085603837865294	-0.2155835467555642	0.0	1.011541371448916	-0.3136052692346694	0.0	1.1427903995593878	-0.38487114314938115	0.0	1.312639496117165	-0.37004564312767685	0.0	1.0271491974458524	-0.31026946180441917	0.0	1.0549538955394189	-0.4370520059747165	0.0	1.0942042650253216	-0.5478060284497135	0.0
66	2.222	1.007584865446787	-0.5816097683210544	0.0	1.0056382726748887	-0.58501633036512	0.0	1.0139523685298677	-0.8228403001185688	0.0	0.9907414593616279	-1.0378026111138965	0.0	1.0961753627702635	-1.0622999768357761	0.0	1.0772928477069192	-1.0747657469753475	0.0	0.9727508519331021	-1.0681879979768574	0.0	1.0106943413360474	-0.5845906516615289	0.0	1.0151796033601017	-0.8118952553461907	0.0	1.001403161604404	-1.0132007509242889	0.0	1.0995402458984629	-1.036989956147924	0.0	1.0865526070580893	-1.0306691593781576	0.0	0.9775387616120716	-1.0428668724535592	0.0	1.035121430963685	-0.2713104528410949	0.0	1.0671481076047413	-0.1327953642191531	0.0	1.085853057092755	-0.21512856136573452	0.0	1.0144389957607867	-0.3134641962433863	0.0	1.157112427891018	-0.36996787090955136	0.0	1.3197783599774828	-0.34479029785418136	0.0	1.0236459843526582	-0.3078420303085486	0.0	1.0425380566728202	-0.4406544204390247	0.0	1.095820500840983	-0.5630920839908683	0.0
67	2.2556666666666665	1.009082895633102	-0.5792553697251366	0.0	1.0068102247843038	-0.5831441749130968	0.0	1.0171537663746484	-0.8209120725309215	0.0	0.9912920988467423	-1.036139638719048	0.0	1.0968073886399392	-1.060422281585963	0.0	1.0775356624894659	-1.0727020604341133	0.0	0.9728821971791171	-1.0657005889329096	0.0	1.0095389103036478	-0.5817615896449511	0.0	1.0166074271799528	-0.80966478670362	0.0	1.0006125783441897	-1.010432613901427	0.0	1.0999798349540542	-1.0335210539829154	0.0	1.0871537347786056	-1.0270982573228902	0.0	0.9763473636172616	-1.0400051058254338	0.0	1.036047323206211	-0.2710921452405919	0.0	1.0670644682071522	-0.13267416352129657	0.0	1.0859461012939615	-0.21442835189461923	0.0	1.0175351714671763	-0.3128802582665606	0.0	1.1702788819307957	-0.3555138461568467	0.0	1.3254320293406918	-0.3209038961579958	0.0	1.0194919951002421	-0.3053672080312798	0.0	1.0334229755018034	-0.44451992030132154	0.0	1.099308958566483	-0.5684762104268107	0.0
68	2.289333333333333	1.0112396711441203	-0.5772155883923894	0.0	1.0088340293787612	-0.5815431279973534	0.0	1.0210568075453452	-0.8189696413946898	0.0	0.9923970779166092	-1.0345080847293053	0.0	1.0981139688621382	-1.0582544807350676	0.0	1.0785959355936627	-1.0705820153718155	0.0	0.9734456725485403	-1.0635306303308816	0.0	1.0091143249791483	-0.5791740826095041	0.0	1.0195537062579776	-0.8072534344252739	0.0	1.0002338181722776	-1.0080857570732498	0.0	1.1007816883459562	-1.0300996194276495	0.0	1.088005001060152	-1.0237483950641373	0.0	0.9750631053239298	-1.0374953557945654	0.0	1.0370326964576826	-0.27102394238424093	0.0	1.0669298747341136	-0.13272915973920565	0.0	1.0858489413002737	-0.2135207571278736	0.0	1.0207699397781234	-0.3115324747641144	0.0	1.1807340458578337	-0.3421016333165215	0.0	1.3295893601732103	-0.2986260445986414	0.0	1.015684780850274	-0.30315751529577445	0.0	1.028007176124861	-0.4476543203190758	0.0	1.1037658923029776	-0.5661117227523422	0.0
69	2.323	1.0140288785346747	-0.5759149715284771	0.0	1.011766035643316	-0.5804080392076487	0.0	1.0258340600672748	-0.8170653532611392	0.0	0.9941722190098473	-1.0330575172969798	0.0	1.0999988230056816	-1.0562863425828002	0.0	1.0804591114525357	-1.0688200833728574	0.0	0.9744289888599016	-1.0619187760911446	0.0	1.0097323226555792	-0.5771730207205106	0.0	1.0253913647651596	-0.8045318843683239	0.0	1.000885048418928	-1.0060262093954342	0.0	1.1021296149569513	-1.0271689461834141	0.0	1.0893228318344215	-1.0209253525295268	0.0	0.9741174585372484	-1.0352118167342144	0.0	1.0380662308022137	-0.27116301142288146	0.0	1.0667038128907382	-0.133010775868981	0.0	1.0858159622201828	-0.21254221581115695	0.0	1.0243613770932887	-0.30953240417155037	0.0	1.1881052470587103	-0.3301914659973904	0.0	1.3322438083037136	-0.278288166848422	0.0	1.0130762324545577	-0.3015448081738761	0.0	1.0252091045226297	-0.4494696990330462	0.0	1.1079986756103453	-0.5590545751558651	0.0
70	2.3566666666666665	1.0173043001617765	-0.5755090234773548	0.0	1.015482647192246	-0.5797086954344751	0.0	1.031488447843877	-0.8152967932607126	0.0	0.9966067568930349	-1.0318510231966516	0.0	1.1021465369899943	-1.0548320526149098	0.0	1.0828292227764325	-1.067627587556969	0.0	0.9757655199404638	-1.0609412341494238	0.0	1.0117044924403404	-0.5759065346723169	0.0	1.0354897058331365	-0.8013031838237662	0.0	1.0032331983923237	-1.0037765150296405	0.0	1.1042782265486042	-1.024731409978265	0.0	1.091389259612992	-1.018477012783944	0.0	0.9740886459652803	-1.0326548695033488	0.0	1.03921022521543	-0.2715368729826275	0.0	1.066531945991556	-0.1334757579500212	0.0	1.0863026223890109	-0.2117498679844149	0.0	1.0286385910112568	-0.30727971268270476	0.0	1.1931893496470012	-0.31989822949401414	0.0	1.3335691208729692	-0.26013103254784303	0.0	1.0119453827713059	-0.3007335289442684	0.0	1.0238526440216542	-0.4497436974575627	0.0	1.111238341822729	-0.5492638970753875	0.0
71	2.390333333333333	1.0209402783648904	-0.5758395100040895	0.0	1.0197308989590883	-0.5792529738451514	0.0	1.037737628784345	-0.8138946532445986	0.0	0.9994083044264287	-1.0309623580786849	0.0	1.1039780095995368	-1.0540455623813338	0.0	1.0849766795214457	-1.067034367609007	0.0	0.9771874980748717	-1.0605512360454117	0.0	1.0155206338887017	-0.5753008876496203	0.0	1.0508240098032706	-0.7974687757711165	0.0	1.008006042498708	-1.000769768615151	0.0	1.1075931795389868	-1.0225852280815382	0.0	1.0946402035421072	-1.0161173109391115	0.0	0.9760155059767082	-1.029250254726737	0.0	1.040613555651738	-0.27211469243930314	0.0	1.0667820661696643	-0.13404161707787468	0.0	1.0877530118981216	-0.21145119713978333	0.0	1.0336700145587552	-0.30518395365933604	0.0	1.197116937579205	-0.31114329878150365	0.0	1.3339263027898178	-0.24418544379946094	0.0	1.012173816983816	-0.30080439232795286	0.0	1.0235711085016101	-0.44868067393886274	0.0	1.1136562904363383	-0.5376872239030615	0.0
72	2.424	1.0249761800225767	-0.5766230074528054	0.0	1.0242579294612588	-0.5788542192406396	0.0	1.0440732066285687	-0.8132293621436631	0.0	1.002004653471587	-1.0305231688252867	0.0	1.1047456812119463	-1.0540940560757395	0.0	1.0858337057813137	-1.0670451846269198	0.0	0.9781968888064965	-1.060638862194601	0.0	1.0217220625834165	-0.5752022212741624	0.0	1.0713358232433816	-0.7931629614113455	0.0	1.0159611494261307	-0.9967050383434735	0.0	1.1126534800052823	-1.020712268520961	0.0	1.0997841616291144	-1.0138417166442144	0.0	0.9814717442517635	-1.02477602275375	0.0	1.0425198063374297	-0.27289342397678135	0.0	1.0678934798635291	-0.13467679932114301	0.0	1.0903840314248503	-0.21184865912413903	0.0	1.039175726889659	-0.3035438518360094	0.0	1.2007986077946895	-0.30387161178000416	0.0	1.3337014698910303	-0.2303057958941981	0.0	1.0135573047801574	-0.3017695111817326	0.0	1.0248180345176654	-0.4469305687024034	0.0	1.1161028027743738	-0.5251231831518045	0.0
73	2.4576666666666664	1.029614668091029	-0.5776555919487454	0.0	1.0289478125491212	-0.5784210184175843	0.0	1.0500280970526872	-0.8136182447693449	0.0	1.0037495831606593	-1.0306795767408414	0.0	1.103781130981758	-1.0552814571259697	0.0	1.0844176139860093	-1.067784250329616	0.0	0.9782928733385408	-1.0610887185253024	0.0	1.030543902315091	-0.575513493792061	0.0	1.0953738399260933	-0.788715480805542	0.0	1.027749336406592	-0.9919412347233526	0.0	1.1203769826936871	-1.0195989813215185	0.0	1.1078867939999542	-1.0122234988810974	0.0	0.992107599393867	-1.019765485121495	0.0	1.045191111853942	-0.273950145519887	0.0	1.070210868487174	-0.13545894796284735	0.0	1.094096937942015	-0.21297752114259522	0.0	1.044763419044109	-0.30258168630521376	0.0	1.2048845374585826	-0.29811216301371285	0.0	1.3331134089342789	-0.21822406676273345	0.0	1.0158919130106043	-0.3035776532778644	0.0	1.028282356125243	-0.445388892867415	0.0	1.1194019493248346	-0.5124529254074286	0.0
74	2.491333333333333	1.0351039593042264	-0.5789124791501854	0.0	1.033868580595646	-0.5780069847684938	0.0	1.055431922799271	-0.8151704654613011	0.0	1.0042168903077724	-1.0316472916469366	0.0	1.1007625913475942	-1.0580034309127968	0.0	1.0802832127197666	-1.0695728000217422	0.0	0.9773367736511099	-1.061913190297481	0.0	1.0416892250733492	-0.5762436761622751	0.0	1.1199942914583614	-0.7845817428410854	0.0	1.0437868364716312	-0.9877117811861338	0.0	1.1321337963168274	-1.0201089008068263	0.0	1.1203277397466265	-1.0122566619950963	0.0	1.008882504007983	-1.0156444311902288	0.0	1.0487922801643301	-0.2753979631488656	0.0	1.0738919974570076	-0.13658420694688483	0.0	1.0986031184114942	-0.21477172658378596	0.0	1.0501516077333997	-0.3024599498539926	0.0	1.2097979017846492	-0.29394753062588974	0.0	1.3321860024017818	-0.20767479548552742	0.0	1.0189276604383855	-0.3061414004693232	0.0	1.0344139565946844	-0.44501329086194324	0.0	1.124040993877504	-0.5004201437054498	0.0
